<svg viewBox="0 0 512.001 512.001" xmlns="http://www.w3.org/2000/svg" xmlns:xlink="http://www.w3.org/1999/xlink" id="Layer_1" overflow="hidden"><g><path d="M463.539 92.045C474.333 119.718 460.646 150.918 432.973 161.712 430.463 155.293 429.279 148.682 429.279 142.179 429.279 120.663 442.273 100.341 463.539 92.045Z" fill="#9AD14B"/><path d="M367.024 0C389.461 19.485 391.864 53.458 372.379 75.895 360.126 65.256 353.85 50.29 353.85 35.24 353.85 22.736 358.19 10.185 367.024 0Z" fill="#9AD14B"/><path d="M399.801 115.821C377.328 135.246 343.355 132.784 323.918 110.31 334.091 101.524 346.607 97.209 359.074 97.209 374.16 97.209 389.162 103.521 399.801 115.821Z" fill="#9AD14B"/></g><path d="M448.592 271.497C448.446 271.497 448.3 271.492 448.153 271.483 444.53 271.244 441.786 268.113 442.025 264.49 448.144 171.634 394.911 84.375 309.564 47.356 306.232 45.911 304.704 42.039 306.149 38.709 307.593 35.377 311.467 33.849 314.796 35.294 405.226 74.517 461.629 166.972 455.147 265.356 454.917 268.831 452.025 271.497 448.592 271.497Z" fill="#B27214"/><path d="M456.811 205.391C456.364 205.574 455.916 205.757 455.473 205.949 430.171 216.949 415.151 243.414 418.795 270.884 425.054 317.994 407.594 362.166 376.231 392.26 350.634 416.826 315.766 432.02 276.985 431.778 273.136 431.754 269.339 432.526 265.863 434.037 263.667 434.991 261.6 436.241 259.715 437.775 232.669 459.787 222.418 487.071 218.67 501.74 217.022 508.181 210.961 512.442 204.338 511.963 158.104 508.581 135.101 480.925 124.879 462.799 120.651 455.307 124.25 445.817 132.394 443.062 168.874 430.714 195.689 402.352 204.533 392.057 205.128 391.353 205.657 390.737 206.083 390.212 206.7 389.476 207.137 388.922 207.405 388.596 207.591 388.351 207.69 388.227 207.69 388.227 202.821 387.581 198.086 386.842 193.492 385.995 184.993 384.458 176.967 382.586 169.387 380.415 158.906 377.444 149.289 373.9 140.473 369.914 133.546 366.769 127.109 363.351 121.14 359.695 109.362 352.501 99.378 344.399 90.915 335.729 85.946 330.655 81.508 325.373 77.528 319.987 71.182 311.368 66.031 302.428 61.853 293.464L61.848 293.454C59.265 287.916 57.071 282.385 55.187 276.894 54.764 275.65 54.349 274.402 53.95 273.16 50.663 262.825 48.487 252.732 47.086 243.345 46.13 236.971 45.521 230.914 45.187 225.324 43.868 204.277 46.099 189.915 46.099 189.915 68.778 204.088 92.835 208.94 116.429 209.277 159.898 209.881 201.787 195.193 230.448 195.364 274.651 195.637 316.471 232.567 316.471 232.567 316.514 232.479 316.548 232.394 316.595 232.314 335.018 192.757 355.723 180.256 372.806 178.354 377.686 177.812 382.275 178.135 386.433 178.949 386.443 178.944 386.443 178.944 386.443 178.944 399.614 181.506 408.395 188.915 408.395 188.915 430.357 211.155 456.811 205.391 456.811 205.391Z" fill="#2BA5F7"/><g><path d="M386.433 178.944C385.556 179.162 340.463 190.923 345.436 256.455L316.595 232.307C335.018 192.75 355.723 180.249 372.806 178.347 377.686 177.807 382.274 178.13 386.433 178.944Z" fill="#0F8DD3"/><path d="M223.681 389.135C286.346 378.53 337.112 358.747 320.383 321.909 283.879 241.499 74.647 270.116 53.95 273.156 69.316 321.423 108.953 375.198 207.69 388.227 207.69 388.227 207.592 388.351 207.405 388.596 207.137 388.924 206.7 389.477 206.083 390.212 199.275 398.43 171.301 429.919 132.301 443.095 124.189 445.836 120.675 455.342 124.879 462.801 135.1 480.93 158.105 508.58 204.335 511.96 210.957 512.444 217.023 508.178 218.665 501.744 222.413 487.067 232.668 459.786 259.71 437.776 264.575 433.816 270.708 431.739 276.981 431.778 315.762 432.021 350.631 416.826 376.227 392.26 305.723 418.387 233.773 392.97 223.681 389.135Z" fill="#0F8DD3"/></g><g><path d="M116.439 246.691C116.416 249.978 114.434 252.795 111.599 254.028 110.595 254.464 109.501 254.694 108.342 254.695 83.527 254.538 61.593 248.564 47.088 243.34 46.132 236.966 45.523 230.909 45.189 225.319 48.58 226.713 52.868 228.336 57.864 229.969 70.901 234.216 88.813 238.474 108.447 238.589 112.88 238.615 116.47 242.241 116.439 246.691Z" fill="#0569A0"/><path d="M120.651 279.591C121.952 283.579 119.988 287.839 116.217 289.478 115.991 289.576 115.75 289.669 115.501 289.742 101.437 294.335 79.324 294.385 61.853 293.458L61.848 293.448C59.265 287.91 57.071 282.379 55.187 276.888 73.229 278.186 97.461 278.701 110.498 274.439 114.732 273.057 119.272 275.368 120.651 279.591Z" fill="#0569A0"/><path d="M130.243 327.207C129.293 327.714 128.302 328.18 127.268 328.63 116.783 333.188 102.851 335.043 90.915 335.725 85.946 330.651 81.508 325.369 77.528 319.983 90.465 320.013 109.299 318.883 120.72 313.918 121.438 313.606 122.129 313.282 122.787 312.938 126.744 310.866 131.595 312.41 133.647 316.352 135.711 320.289 134.185 325.154 130.243 327.207Z" fill="#0569A0"/><path d="M163.488 358.255C159.305 361.396 153.416 364.436 147.096 367.185 144.92 368.131 142.693 369.04 140.474 369.912 133.547 366.767 127.11 363.349 121.141 359.693 132.79 355.846 147.125 350.398 153.828 345.377 157.384 342.706 162.428 343.43 165.098 346.986 167.768 350.542 167.046 355.584 163.488 358.255Z" fill="#0569A0"/><path d="M208.752 375.532C205.508 378.733 199.613 382.513 193.494 385.993 184.995 384.456 176.969 382.584 169.389 380.413 179.276 375.611 193.352 368.11 197.439 364.074 200.607 360.941 205.706 360.984 208.825 364.146 211.952 367.305 211.919 372.399 208.752 375.532Z" fill="#0569A0"/></g><circle cx="379.083" cy="220" r="8.051" fill="#4D4D4D"/><g></g><g></g><g></g><g></g><g></g><g></g><g></g><g></g><g></g><g></g><g></g><g></g><g></g><g></g><g></g></svg>